#!OML:ASF E:\Mandelcareful walks\Project 1\Capture day 1\Session 1\Subject1.ASF
:FULLY-SPECIFIED
:DEGREES
1
root -21.2964 14.3324 -0.554285 -165.916 3.66007 176.627
lowerback 21.4652 0.386369 -2.46997
upperback 5.82812 1.00712 0.0159295
thorax -5.65725 0.931298 1.12475
lowerneck -28.0408 2.53772 0.148432
upperneck 12.4572 5.35463 -8.25628
head 8.6746 1.72712 -2.04831
rclavicle 7.95139e-015 1.39149e-014
rhumerus -1.39791 -4.32511 -81.3291
rradius 70.0191
rwrist -7.075
rhand -20.9385 -31.2565
rfingers 7.12502
rthumb 5.43371 -61.1669
lclavicle 7.95139e-015 1.39149e-014
lhumerus -0.750405 -7.67947 82.5853
lradius 69.0915
lwrist 21.5041
lhand -34.0001 -17.2124
lfingers 7.12502
lthumb -7.17969 12.6458
rfemur -47.6669 -23.7404 -0.098926
rtibia 57.8655
rfoot -13.4615 -3.13008
rtoes -20.298
lfemur -51.2987 22.4263 -15.2725
ltibia 66.8627
lfoot -19.7244 5.43394
ltoes -27.315
2
root -21.2916 14.331 -0.557004 -165.943 3.67457 176.698
lowerback 21.4698 0.414539 -2.2804
upperback 5.85213 1.08806 -0.0102111
thorax -5.63469 0.971162 0.967732
lowerneck -27.9717 2.51165 0.2541
upperneck 12.4083 5.24943 -8.17392
head 8.64025 1.69273 -2.05337
rclavicle 1.70955e-014 -7.55382e-015
rhumerus -1.27039 -4.42117 -81.3472
rradius 70.1146
rwrist -7.12567
rhand -21.0456 -31.3498
rfingers 7.12502
rthumb 5.33031 -61.2628
lclavicle 1.70955e-014 -7.55382e-015
lhumerus -0.724332 -7.97401 82.3895
lradius 69.099
lwrist 21.9207
lhand -33.7835 -17.3184
lfingers 7.12502
lthumb -6.97055 12.5469
rfemur -47.5859 -23.5373 -0.0603474
rtibia 57.781
rfoot -13.3279 -3.31971
rtoes -20.5057
lfemur -51.2789 22.5221 -15.1587
ltibia 66.9389
lfoot -19.751 5.31629
ltoes -27.2104
3
root -21.2878 14.33 -0.561362 -165.946 3.68654 176.736
lowerback 21.4125 0.406484 -2.2139
upperback 5.89055 1.09973 0.0094287
thorax -5.56366 0.977442 0.949393
lowerneck -27.9392 2.53313 0.31588
upperneck 12.3424 5.23698 -8.13219
head 8.61107 1.69656 -2.05067
rclavicle -6.36111e-015 -2.3059e-014
rhumerus -1.13635 -4.2946 -81.3511
rradius 70.3156
rwrist -7.39859
rhand -21.3493 -31.5182
rfingers 7.12502
rthumb 5.03707 -61.4383
lclavicle -6.36111e-015 -2.3059e-014
lhumerus -0.761311 -7.96273 82.2777
lradius 69.1566
lwrist 21.9669
lhand -33.3607 -17.0233
lfingers 7.12502
lthumb -6.56243 12.855
rfemur -47.4962 -23.433 -0.0411022
rtibia 57.6435
rfoot -13.2609 -3.34574
rtoes -20.9489
lfemur -51.2654 22.5728 -15.084
ltibia 66.9522
lfoot -19.7417 5.21802
ltoes -26.8957
4
root -21.2856 14.3368 -0.566505 -165.936 3.70357 176.767
lowerback 21.3864 0.376096 -2.13884
upperback 5.90408 1.07818 0.015407
thorax -5.53432 0.966624 0.919208
lowerneck -27.9432 2.55124 0.363511
upperneck 12.2932 5.24093 -8.13869
head 8.59606 1.70185 -2.05968
rclavicle -9.54166e-015 -3.97569e-015
rhumerus -1.1134 -4.15648 -81.4239
rradius 70.5196
rwrist -7.52509
rhand -21.0696 -31.7992
rfingers 7.12502
rthumb 5.30713 -61.7127
lclavicle -9.54166e-015 -3.97569e-015
lhumerus -0.783422 -7.82806 82.2128
lradius 69.1378
lwrist 21.8392
lhand -32.8582 -16.5664
lfingers 7.12502
lthumb -6.07732 13.3265
rfemur -47.431 -23.2854 -0.0764066
rtibia 57.5521
rfoot -13.2399 -3.32006
rtoes -20.599
lfemur -51.2364 22.587 -15.0082
ltibia 66.9533
lfoot -19.7578 5.02604
ltoes -26.2158
5
root -21.2836 14.3448 -0.570731 -165.899 3.70964 176.782
lowerback 21.4116 0.327315 -2.07964
upperback 5.89353 1.02464 0.0151586
thorax -5.55657 0.939873 0.898398
lowerneck -28.1965 2.51859 0.000669044
upperneck 12.4154 5.23054 -7.63195
head 8.64863 1.71981 -1.82937
rclavicle -1.55052e-014 3.97569e-016
rhumerus -1.09775 -3.8905 -81.4118
rradius 70.6057
rwrist -7.66773
rhand -20.6562 -31.8889
rfingers 7.12502
rthumb 5.70632 -61.792
lclavicle -1.55052e-014 3.97569e-016
lhumerus -0.816561 -7.75225 82.0719
lradius 69.1172
lwrist 21.9537
lhand -32.7947 -16.339
lfingers 7.12502
lthumb -6.01602 13.5556
rfemur -47.4445 -23.1596 -0.124815
rtibia 57.5301
rfoot -13.2829 -3.22316
rtoes -19.8938
lfemur -51.2281 22.5775 -14.9717
ltibia 66.9249
lfoot -19.7802 4.98566
ltoes -26.1935
